<svg id="SVGRoot" width="64px" height="64px" version="1.1" viewBox="0 0 64 64" xmlns="http://www.w3.org/2000/svg">
 <g>
  <path d="m44.853 52.053v-3.4133h1.92q2.0053 0 3.1147-0.93867 1.1093-0.896 0.93867-2.7307l-0.64-6.9973q-0.21333-2.432 0.93867-4.096 1.1947-1.7067 3.328-2.0907-2.1333-0.34133-3.328-1.8347-1.152-1.4933-0.93867-3.9253l0.64-6.9973q0.17067-1.8347-0.93867-2.7307-1.1093-0.93867-3.1147-0.93867h-1.92v-3.4133h1.92q3.7973 0 6.016 1.8773 2.2187 1.8347 1.8773 5.2053l-0.64 6.9973q-0.17067 2.2613 0.64 3.2853 0.85333 0.98133 3.6267 0.98133h4.9067v3.4133h-4.9067q-2.7307 0-3.584 1.024-0.85333 0.98133-0.68267 3.2427l0.64 6.9973q0.34133 3.3707-1.8773 5.2053-2.2187 1.8773-6.016 1.8773z"/>
  <path d="m29.952 43.787q-3.712 0-5.8453-1.8773-2.1333-1.92-2.1333-5.1627 0-3.2853 2.1333-5.1627 2.1333-1.8773 5.76-1.8773h7.2533v-2.3467q0-2.1333-1.3227-3.328-1.28-1.1947-3.584-1.1947-2.048 0-3.456 0.896-1.408 0.896-1.7493 2.3467h-3.84q0.21333-1.9627 1.408-3.456 1.2373-1.4933 3.2-2.304 2.0053-0.85333 4.4373-0.85333 4.0533 0 6.4 2.0907 2.3467 2.0907 2.3467 5.6747v16.128h-3.7547v-4.48h-0.04267q-0.256 2.2613-2.2187 3.584-1.92 1.3227-4.992 1.3227zm0.93867-3.0293q2.7307 0 4.48-1.3653 1.7493-1.3653 1.7493-3.4987v-3.328h-7.168q-1.92 0-3.0293 1.0667-1.1093 1.0667-1.1093 2.9013 0 1.9627 1.3227 3.1147 1.3653 1.1093 3.7547 1.1093z"/>
  <path d="m17.227 52.053q-3.7547 0-5.9733-1.8773-2.2187-1.8347-1.92-5.2053l0.64-6.9973q0.21333-2.2613-0.64-3.2427-0.85333-1.024-3.6267-1.024h-4.9067v-3.4133h4.9067q2.7733 0 3.6267-0.98133 0.85333-1.024 0.64-3.2853l-0.64-6.9973q-0.29867-3.3707 1.92-5.2053 2.2187-1.8773 5.9733-1.8773h1.92v3.4133h-1.92q-2.0053 0-3.1147 0.93867-1.1093 0.896-0.93867 2.7307l0.64 6.9973q0.21333 2.432-0.98133 3.968-1.152 1.4933-3.2853 1.8347 2.1333 0.384 3.2853 2.048 1.1947 1.664 0.98133 4.096l-0.64 6.9973q-0.17067 1.8347 0.93867 2.7307 1.1093 0.93867 3.1147 0.93867h1.92v3.4133z"/>
 </g>
</svg>
